G04 #@! TF.FileFunction,Legend,Bot*
%FSLAX46Y46*%
G04 Gerber Fmt 4.6, Leading zero omitted, Abs format (unit mm)*
G04 Created by KiCad (PCBNEW 4.0.3+e1-6302~38~ubuntu15.10.1-stable) date Thu Nov 17 06:05:07 2016*
%MOMM*%
%LPD*%
G01*
G04 APERTURE LIST*
%ADD10C,0.200000*%
%ADD11C,0.300000*%
G04 APERTURE END LIST*
D10*
X106075000Y-111315000D02*
X106075000Y-96710000D01*
D11*
X108527143Y-135893571D02*
X107670000Y-135893571D01*
X108098571Y-137393571D02*
X108098571Y-135893571D01*
X107170000Y-137393571D02*
X107170000Y-136393571D01*
X107170000Y-136679286D02*
X107098572Y-136536429D01*
X107027143Y-136465000D01*
X106884286Y-136393571D01*
X106741429Y-136393571D01*
X105598572Y-137393571D02*
X105598572Y-136607857D01*
X105670001Y-136465000D01*
X105812858Y-136393571D01*
X106098572Y-136393571D01*
X106241429Y-136465000D01*
X105598572Y-137322143D02*
X105741429Y-137393571D01*
X106098572Y-137393571D01*
X106241429Y-137322143D01*
X106312858Y-137179286D01*
X106312858Y-137036429D01*
X106241429Y-136893571D01*
X106098572Y-136822143D01*
X105741429Y-136822143D01*
X105598572Y-136750714D01*
X104241429Y-137322143D02*
X104384286Y-137393571D01*
X104670000Y-137393571D01*
X104812858Y-137322143D01*
X104884286Y-137250714D01*
X104955715Y-137107857D01*
X104955715Y-136679286D01*
X104884286Y-136536429D01*
X104812858Y-136465000D01*
X104670000Y-136393571D01*
X104384286Y-136393571D01*
X104241429Y-136465000D01*
X103812858Y-136393571D02*
X103241429Y-136393571D01*
X103598572Y-135893571D02*
X103598572Y-137179286D01*
X103527144Y-137322143D01*
X103384286Y-137393571D01*
X103241429Y-137393571D01*
X102741429Y-137393571D02*
X102741429Y-136393571D01*
X102741429Y-135893571D02*
X102812858Y-135965000D01*
X102741429Y-136036429D01*
X102670001Y-135965000D01*
X102741429Y-135893571D01*
X102741429Y-136036429D01*
X101812857Y-137393571D02*
X101955715Y-137322143D01*
X102027143Y-137250714D01*
X102098572Y-137107857D01*
X102098572Y-136679286D01*
X102027143Y-136536429D01*
X101955715Y-136465000D01*
X101812857Y-136393571D01*
X101598572Y-136393571D01*
X101455715Y-136465000D01*
X101384286Y-136536429D01*
X101312857Y-136679286D01*
X101312857Y-137107857D01*
X101384286Y-137250714D01*
X101455715Y-137322143D01*
X101598572Y-137393571D01*
X101812857Y-137393571D01*
X100670000Y-136393571D02*
X100670000Y-137393571D01*
X100670000Y-136536429D02*
X100598572Y-136465000D01*
X100455714Y-136393571D01*
X100241429Y-136393571D01*
X100098572Y-136465000D01*
X100027143Y-136607857D01*
X100027143Y-137393571D01*
X106062857Y-131043571D02*
X106777143Y-131043571D01*
X106777143Y-129543571D01*
X105348571Y-131043571D02*
X105491429Y-130972143D01*
X105562857Y-130900714D01*
X105634286Y-130757857D01*
X105634286Y-130329286D01*
X105562857Y-130186429D01*
X105491429Y-130115000D01*
X105348571Y-130043571D01*
X105134286Y-130043571D01*
X104991429Y-130115000D01*
X104920000Y-130186429D01*
X104848571Y-130329286D01*
X104848571Y-130757857D01*
X104920000Y-130900714D01*
X104991429Y-130972143D01*
X105134286Y-131043571D01*
X105348571Y-131043571D01*
X103562857Y-130043571D02*
X103562857Y-131257857D01*
X103634286Y-131400714D01*
X103705714Y-131472143D01*
X103848571Y-131543571D01*
X104062857Y-131543571D01*
X104205714Y-131472143D01*
X103562857Y-130972143D02*
X103705714Y-131043571D01*
X103991428Y-131043571D01*
X104134286Y-130972143D01*
X104205714Y-130900714D01*
X104277143Y-130757857D01*
X104277143Y-130329286D01*
X104205714Y-130186429D01*
X104134286Y-130115000D01*
X103991428Y-130043571D01*
X103705714Y-130043571D01*
X103562857Y-130115000D01*
X102848571Y-131043571D02*
X102848571Y-130043571D01*
X102848571Y-129543571D02*
X102920000Y-129615000D01*
X102848571Y-129686429D01*
X102777143Y-129615000D01*
X102848571Y-129543571D01*
X102848571Y-129686429D01*
X101491428Y-130972143D02*
X101634285Y-131043571D01*
X101919999Y-131043571D01*
X102062857Y-130972143D01*
X102134285Y-130900714D01*
X102205714Y-130757857D01*
X102205714Y-130329286D01*
X102134285Y-130186429D01*
X102062857Y-130115000D01*
X101919999Y-130043571D01*
X101634285Y-130043571D01*
X101491428Y-130115000D01*
X103578571Y-103072143D02*
X103578571Y-102357857D01*
X102078571Y-102357857D01*
X103578571Y-103786429D02*
X103507143Y-103643571D01*
X103435714Y-103572143D01*
X103292857Y-103500714D01*
X102864286Y-103500714D01*
X102721429Y-103572143D01*
X102650000Y-103643571D01*
X102578571Y-103786429D01*
X102578571Y-104000714D01*
X102650000Y-104143571D01*
X102721429Y-104215000D01*
X102864286Y-104286429D01*
X103292857Y-104286429D01*
X103435714Y-104215000D01*
X103507143Y-104143571D01*
X103578571Y-104000714D01*
X103578571Y-103786429D01*
X102578571Y-105572143D02*
X103792857Y-105572143D01*
X103935714Y-105500714D01*
X104007143Y-105429286D01*
X104078571Y-105286429D01*
X104078571Y-105072143D01*
X104007143Y-104929286D01*
X103507143Y-105572143D02*
X103578571Y-105429286D01*
X103578571Y-105143572D01*
X103507143Y-105000714D01*
X103435714Y-104929286D01*
X103292857Y-104857857D01*
X102864286Y-104857857D01*
X102721429Y-104929286D01*
X102650000Y-105000714D01*
X102578571Y-105143572D01*
X102578571Y-105429286D01*
X102650000Y-105572143D01*
X103578571Y-106286429D02*
X102578571Y-106286429D01*
X102078571Y-106286429D02*
X102150000Y-106215000D01*
X102221429Y-106286429D01*
X102150000Y-106357857D01*
X102078571Y-106286429D01*
X102221429Y-106286429D01*
X103507143Y-107643572D02*
X103578571Y-107500715D01*
X103578571Y-107215001D01*
X103507143Y-107072143D01*
X103435714Y-107000715D01*
X103292857Y-106929286D01*
X102864286Y-106929286D01*
X102721429Y-107000715D01*
X102650000Y-107072143D01*
X102578571Y-107215001D01*
X102578571Y-107500715D01*
X102650000Y-107643572D01*
X109785714Y-101393572D02*
X109857143Y-101322143D01*
X109928571Y-101107857D01*
X109928571Y-100965000D01*
X109857143Y-100750715D01*
X109714286Y-100607857D01*
X109571429Y-100536429D01*
X109285714Y-100465000D01*
X109071429Y-100465000D01*
X108785714Y-100536429D01*
X108642857Y-100607857D01*
X108500000Y-100750715D01*
X108428571Y-100965000D01*
X108428571Y-101107857D01*
X108500000Y-101322143D01*
X108571429Y-101393572D01*
X109500000Y-101965000D02*
X109500000Y-102679286D01*
X109928571Y-101822143D02*
X108428571Y-102322143D01*
X109928571Y-102822143D01*
X109928571Y-103322143D02*
X108428571Y-103322143D01*
X109928571Y-104179286D01*
X108428571Y-104179286D01*
X109142857Y-106536429D02*
X109214286Y-106750715D01*
X109285714Y-106822143D01*
X109428571Y-106893572D01*
X109642857Y-106893572D01*
X109785714Y-106822143D01*
X109857143Y-106750715D01*
X109928571Y-106607857D01*
X109928571Y-106036429D01*
X108428571Y-106036429D01*
X108428571Y-106536429D01*
X108500000Y-106679286D01*
X108571429Y-106750715D01*
X108714286Y-106822143D01*
X108857143Y-106822143D01*
X109000000Y-106750715D01*
X109071429Y-106679286D01*
X109142857Y-106536429D01*
X109142857Y-106036429D01*
X108928571Y-108179286D02*
X109928571Y-108179286D01*
X108928571Y-107536429D02*
X109714286Y-107536429D01*
X109857143Y-107607857D01*
X109928571Y-107750715D01*
X109928571Y-107965000D01*
X109857143Y-108107857D01*
X109785714Y-108179286D01*
X109857143Y-108822143D02*
X109928571Y-108965000D01*
X109928571Y-109250715D01*
X109857143Y-109393572D01*
X109714286Y-109465000D01*
X109642857Y-109465000D01*
X109500000Y-109393572D01*
X109428571Y-109250715D01*
X109428571Y-109036429D01*
X109357143Y-108893572D01*
X109214286Y-108822143D01*
X109142857Y-108822143D01*
X109000000Y-108893572D01*
X108928571Y-109036429D01*
X108928571Y-109250715D01*
X109000000Y-109393572D01*
D10*
X106075000Y-113220000D02*
X141000000Y-113220000D01*
X106075000Y-111315000D02*
X106075000Y-113220000D01*
X106075000Y-62420000D02*
X106075000Y-96710000D01*
D11*
X132280714Y-75163571D02*
X132995000Y-75163571D01*
X132995000Y-73663571D01*
X130776428Y-74592143D02*
X129633571Y-74592143D01*
X130205000Y-75163571D02*
X130205000Y-74020714D01*
X129506428Y-82212143D02*
X128363571Y-82212143D01*
X134443571Y-82783571D02*
X134443571Y-81283571D01*
X134443571Y-81997857D02*
X133586428Y-81997857D01*
X133586428Y-82783571D02*
X133586428Y-81283571D01*
X110456428Y-82212143D02*
X109313571Y-82212143D01*
X111726428Y-74592143D02*
X110583571Y-74592143D01*
X111155000Y-75163571D02*
X111155000Y-74020714D01*
X113230714Y-75163571D02*
X113945000Y-75163571D01*
X113945000Y-73663571D01*
X115393571Y-82783571D02*
X115393571Y-81283571D01*
X115393571Y-81997857D02*
X114536428Y-81997857D01*
X114536428Y-82783571D02*
X114536428Y-81283571D01*
X122752856Y-117002143D02*
X122538570Y-117073571D01*
X122181427Y-117073571D01*
X122038570Y-117002143D01*
X121967141Y-116930714D01*
X121895713Y-116787857D01*
X121895713Y-116645000D01*
X121967141Y-116502143D01*
X122038570Y-116430714D01*
X122181427Y-116359286D01*
X122467141Y-116287857D01*
X122609999Y-116216429D01*
X122681427Y-116145000D01*
X122752856Y-116002143D01*
X122752856Y-115859286D01*
X122681427Y-115716429D01*
X122609999Y-115645000D01*
X122467141Y-115573571D01*
X122109999Y-115573571D01*
X121895713Y-115645000D01*
X121252856Y-117073571D02*
X121252856Y-115573571D01*
X120752856Y-116645000D01*
X120252856Y-115573571D01*
X120252856Y-117073571D01*
X119752856Y-115573571D02*
X118895713Y-115573571D01*
X119324284Y-117073571D02*
X119324284Y-115573571D01*
X117752856Y-117073571D02*
X117752856Y-116287857D01*
X117824285Y-116145000D01*
X117967142Y-116073571D01*
X118252856Y-116073571D01*
X118395713Y-116145000D01*
X117752856Y-117002143D02*
X117895713Y-117073571D01*
X118252856Y-117073571D01*
X118395713Y-117002143D01*
X118467142Y-116859286D01*
X118467142Y-116716429D01*
X118395713Y-116573571D01*
X118252856Y-116502143D01*
X117895713Y-116502143D01*
X117752856Y-116430714D01*
X117252856Y-116073571D02*
X116681427Y-116073571D01*
X117038570Y-117073571D02*
X117038570Y-115787857D01*
X116967142Y-115645000D01*
X116824284Y-115573571D01*
X116681427Y-115573571D01*
X115609999Y-117002143D02*
X115752856Y-117073571D01*
X116038570Y-117073571D01*
X116181427Y-117002143D01*
X116252856Y-116859286D01*
X116252856Y-116287857D01*
X116181427Y-116145000D01*
X116038570Y-116073571D01*
X115752856Y-116073571D01*
X115609999Y-116145000D01*
X115538570Y-116287857D01*
X115538570Y-116430714D01*
X116252856Y-116573571D01*
X113252856Y-116287857D02*
X113038570Y-116359286D01*
X112967142Y-116430714D01*
X112895713Y-116573571D01*
X112895713Y-116787857D01*
X112967142Y-116930714D01*
X113038570Y-117002143D01*
X113181428Y-117073571D01*
X113752856Y-117073571D01*
X113752856Y-115573571D01*
X113252856Y-115573571D01*
X113109999Y-115645000D01*
X113038570Y-115716429D01*
X112967142Y-115859286D01*
X112967142Y-116002143D01*
X113038570Y-116145000D01*
X113109999Y-116216429D01*
X113252856Y-116287857D01*
X113752856Y-116287857D01*
X111538570Y-117073571D02*
X112252856Y-117073571D01*
X112252856Y-115573571D01*
X111038570Y-117073571D02*
X111038570Y-115573571D01*
X110681427Y-115573571D01*
X110467142Y-115645000D01*
X110324284Y-115787857D01*
X110252856Y-115930714D01*
X110181427Y-116216429D01*
X110181427Y-116430714D01*
X110252856Y-116716429D01*
X110324284Y-116859286D01*
X110467142Y-117002143D01*
X110681427Y-117073571D01*
X111038570Y-117073571D01*
X108681427Y-116930714D02*
X108752856Y-117002143D01*
X108967142Y-117073571D01*
X109109999Y-117073571D01*
X109324284Y-117002143D01*
X109467142Y-116859286D01*
X109538570Y-116716429D01*
X109609999Y-116430714D01*
X109609999Y-116216429D01*
X109538570Y-115930714D01*
X109467142Y-115787857D01*
X109324284Y-115645000D01*
X109109999Y-115573571D01*
X108967142Y-115573571D01*
X108752856Y-115645000D01*
X108681427Y-115716429D01*
X106895713Y-117073571D02*
X106895713Y-115573571D01*
X106395713Y-116645000D01*
X105895713Y-115573571D01*
X105895713Y-117073571D01*
X104967141Y-117073571D02*
X105109999Y-117002143D01*
X105181427Y-116930714D01*
X105252856Y-116787857D01*
X105252856Y-116359286D01*
X105181427Y-116216429D01*
X105109999Y-116145000D01*
X104967141Y-116073571D01*
X104752856Y-116073571D01*
X104609999Y-116145000D01*
X104538570Y-116216429D01*
X104467141Y-116359286D01*
X104467141Y-116787857D01*
X104538570Y-116930714D01*
X104609999Y-117002143D01*
X104752856Y-117073571D01*
X104967141Y-117073571D01*
X104038570Y-116073571D02*
X103467141Y-116073571D01*
X103824284Y-115573571D02*
X103824284Y-116859286D01*
X103752856Y-117002143D01*
X103609998Y-117073571D01*
X103467141Y-117073571D01*
X102752855Y-117073571D02*
X102895713Y-117002143D01*
X102967141Y-116930714D01*
X103038570Y-116787857D01*
X103038570Y-116359286D01*
X102967141Y-116216429D01*
X102895713Y-116145000D01*
X102752855Y-116073571D01*
X102538570Y-116073571D01*
X102395713Y-116145000D01*
X102324284Y-116216429D01*
X102252855Y-116359286D01*
X102252855Y-116787857D01*
X102324284Y-116930714D01*
X102395713Y-117002143D01*
X102538570Y-117073571D01*
X102752855Y-117073571D01*
X101609998Y-117073571D02*
X101609998Y-116073571D01*
X101609998Y-116359286D02*
X101538570Y-116216429D01*
X101467141Y-116145000D01*
X101324284Y-116073571D01*
X101181427Y-116073571D01*
X98681427Y-116930714D02*
X98752856Y-117002143D01*
X98967142Y-117073571D01*
X99109999Y-117073571D01*
X99324284Y-117002143D01*
X99467142Y-116859286D01*
X99538570Y-116716429D01*
X99609999Y-116430714D01*
X99609999Y-116216429D01*
X99538570Y-115930714D01*
X99467142Y-115787857D01*
X99324284Y-115645000D01*
X99109999Y-115573571D01*
X98967142Y-115573571D01*
X98752856Y-115645000D01*
X98681427Y-115716429D01*
X97824284Y-117073571D02*
X97967142Y-117002143D01*
X98038570Y-116930714D01*
X98109999Y-116787857D01*
X98109999Y-116359286D01*
X98038570Y-116216429D01*
X97967142Y-116145000D01*
X97824284Y-116073571D01*
X97609999Y-116073571D01*
X97467142Y-116145000D01*
X97395713Y-116216429D01*
X97324284Y-116359286D01*
X97324284Y-116787857D01*
X97395713Y-116930714D01*
X97467142Y-117002143D01*
X97609999Y-117073571D01*
X97824284Y-117073571D01*
X96681427Y-116073571D02*
X96681427Y-117073571D01*
X96681427Y-116216429D02*
X96609999Y-116145000D01*
X96467141Y-116073571D01*
X96252856Y-116073571D01*
X96109999Y-116145000D01*
X96038570Y-116287857D01*
X96038570Y-117073571D01*
X95538570Y-116073571D02*
X94967141Y-116073571D01*
X95324284Y-115573571D02*
X95324284Y-116859286D01*
X95252856Y-117002143D01*
X95109998Y-117073571D01*
X94967141Y-117073571D01*
X94467141Y-117073571D02*
X94467141Y-116073571D01*
X94467141Y-116359286D02*
X94395713Y-116216429D01*
X94324284Y-116145000D01*
X94181427Y-116073571D01*
X94038570Y-116073571D01*
X93324284Y-117073571D02*
X93467142Y-117002143D01*
X93538570Y-116930714D01*
X93609999Y-116787857D01*
X93609999Y-116359286D01*
X93538570Y-116216429D01*
X93467142Y-116145000D01*
X93324284Y-116073571D01*
X93109999Y-116073571D01*
X92967142Y-116145000D01*
X92895713Y-116216429D01*
X92824284Y-116359286D01*
X92824284Y-116787857D01*
X92895713Y-116930714D01*
X92967142Y-117002143D01*
X93109999Y-117073571D01*
X93324284Y-117073571D01*
X91967141Y-117073571D02*
X92109999Y-117002143D01*
X92181427Y-116859286D01*
X92181427Y-115573571D01*
X91181427Y-117073571D02*
X91324285Y-117002143D01*
X91395713Y-116859286D01*
X91395713Y-115573571D01*
X90038571Y-117002143D02*
X90181428Y-117073571D01*
X90467142Y-117073571D01*
X90609999Y-117002143D01*
X90681428Y-116859286D01*
X90681428Y-116287857D01*
X90609999Y-116145000D01*
X90467142Y-116073571D01*
X90181428Y-116073571D01*
X90038571Y-116145000D01*
X89967142Y-116287857D01*
X89967142Y-116430714D01*
X90681428Y-116573571D01*
X89324285Y-117073571D02*
X89324285Y-116073571D01*
X89324285Y-116359286D02*
X89252857Y-116216429D01*
X89181428Y-116145000D01*
X89038571Y-116073571D01*
X88895714Y-116073571D01*
X87252857Y-117073571D02*
X87252857Y-115573571D01*
X86538571Y-116073571D02*
X86538571Y-117073571D01*
X86538571Y-116216429D02*
X86467143Y-116145000D01*
X86324285Y-116073571D01*
X86110000Y-116073571D01*
X85967143Y-116145000D01*
X85895714Y-116287857D01*
X85895714Y-117073571D01*
X85395714Y-116073571D02*
X84824285Y-116073571D01*
X85181428Y-115573571D02*
X85181428Y-116859286D01*
X85110000Y-117002143D01*
X84967142Y-117073571D01*
X84824285Y-117073571D01*
X83752857Y-117002143D02*
X83895714Y-117073571D01*
X84181428Y-117073571D01*
X84324285Y-117002143D01*
X84395714Y-116859286D01*
X84395714Y-116287857D01*
X84324285Y-116145000D01*
X84181428Y-116073571D01*
X83895714Y-116073571D01*
X83752857Y-116145000D01*
X83681428Y-116287857D01*
X83681428Y-116430714D01*
X84395714Y-116573571D01*
X83038571Y-117073571D02*
X83038571Y-116073571D01*
X83038571Y-116359286D02*
X82967143Y-116216429D01*
X82895714Y-116145000D01*
X82752857Y-116073571D01*
X82610000Y-116073571D01*
X82324286Y-116073571D02*
X81752857Y-116073571D01*
X82110000Y-117073571D02*
X82110000Y-115787857D01*
X82038572Y-115645000D01*
X81895714Y-115573571D01*
X81752857Y-115573571D01*
X80610000Y-117073571D02*
X80610000Y-116287857D01*
X80681429Y-116145000D01*
X80824286Y-116073571D01*
X81110000Y-116073571D01*
X81252857Y-116145000D01*
X80610000Y-117002143D02*
X80752857Y-117073571D01*
X81110000Y-117073571D01*
X81252857Y-117002143D01*
X81324286Y-116859286D01*
X81324286Y-116716429D01*
X81252857Y-116573571D01*
X81110000Y-116502143D01*
X80752857Y-116502143D01*
X80610000Y-116430714D01*
X79252857Y-117002143D02*
X79395714Y-117073571D01*
X79681428Y-117073571D01*
X79824286Y-117002143D01*
X79895714Y-116930714D01*
X79967143Y-116787857D01*
X79967143Y-116359286D01*
X79895714Y-116216429D01*
X79824286Y-116145000D01*
X79681428Y-116073571D01*
X79395714Y-116073571D01*
X79252857Y-116145000D01*
X78038572Y-117002143D02*
X78181429Y-117073571D01*
X78467143Y-117073571D01*
X78610000Y-117002143D01*
X78681429Y-116859286D01*
X78681429Y-116287857D01*
X78610000Y-116145000D01*
X78467143Y-116073571D01*
X78181429Y-116073571D01*
X78038572Y-116145000D01*
X77967143Y-116287857D01*
X77967143Y-116430714D01*
X78681429Y-116573571D01*
X112685712Y-123907857D02*
X112471426Y-123979286D01*
X112399998Y-124050714D01*
X112328569Y-124193571D01*
X112328569Y-124407857D01*
X112399998Y-124550714D01*
X112471426Y-124622143D01*
X112614284Y-124693571D01*
X113185712Y-124693571D01*
X113185712Y-123193571D01*
X112685712Y-123193571D01*
X112542855Y-123265000D01*
X112471426Y-123336429D01*
X112399998Y-123479286D01*
X112399998Y-123622143D01*
X112471426Y-123765000D01*
X112542855Y-123836429D01*
X112685712Y-123907857D01*
X113185712Y-123907857D01*
X111685712Y-124693571D02*
X111685712Y-123693571D01*
X111685712Y-123979286D02*
X111614284Y-123836429D01*
X111542855Y-123765000D01*
X111399998Y-123693571D01*
X111257141Y-123693571D01*
X110185713Y-124622143D02*
X110328570Y-124693571D01*
X110614284Y-124693571D01*
X110757141Y-124622143D01*
X110828570Y-124479286D01*
X110828570Y-123907857D01*
X110757141Y-123765000D01*
X110614284Y-123693571D01*
X110328570Y-123693571D01*
X110185713Y-123765000D01*
X110114284Y-123907857D01*
X110114284Y-124050714D01*
X110828570Y-124193571D01*
X109685713Y-123693571D02*
X109114284Y-123693571D01*
X109471427Y-123193571D02*
X109471427Y-124479286D01*
X109399999Y-124622143D01*
X109257141Y-124693571D01*
X109114284Y-124693571D01*
X108828570Y-123693571D02*
X108257141Y-123693571D01*
X108614284Y-123193571D02*
X108614284Y-124479286D01*
X108542856Y-124622143D01*
X108399998Y-124693571D01*
X108257141Y-124693571D01*
X106899998Y-124693571D02*
X107399998Y-123979286D01*
X107757141Y-124693571D02*
X107757141Y-123193571D01*
X107185713Y-123193571D01*
X107042855Y-123265000D01*
X106971427Y-123336429D01*
X106899998Y-123479286D01*
X106899998Y-123693571D01*
X106971427Y-123836429D01*
X107042855Y-123907857D01*
X107185713Y-123979286D01*
X107757141Y-123979286D01*
X106257141Y-124693571D02*
X106257141Y-123193571D01*
X105899998Y-123193571D01*
X105685713Y-123265000D01*
X105542855Y-123407857D01*
X105471427Y-123550714D01*
X105399998Y-123836429D01*
X105399998Y-124050714D01*
X105471427Y-124336429D01*
X105542855Y-124479286D01*
X105685713Y-124622143D01*
X105899998Y-124693571D01*
X106257141Y-124693571D01*
X103685713Y-123336429D02*
X103614284Y-123265000D01*
X103471427Y-123193571D01*
X103114284Y-123193571D01*
X102971427Y-123265000D01*
X102899998Y-123336429D01*
X102828570Y-123479286D01*
X102828570Y-123622143D01*
X102899998Y-123836429D01*
X103757141Y-124693571D01*
X102828570Y-124693571D01*
X101899999Y-123193571D02*
X101757142Y-123193571D01*
X101614285Y-123265000D01*
X101542856Y-123336429D01*
X101471427Y-123479286D01*
X101399999Y-123765000D01*
X101399999Y-124122143D01*
X101471427Y-124407857D01*
X101542856Y-124550714D01*
X101614285Y-124622143D01*
X101757142Y-124693571D01*
X101899999Y-124693571D01*
X102042856Y-124622143D01*
X102114285Y-124550714D01*
X102185713Y-124407857D01*
X102257142Y-124122143D01*
X102257142Y-123765000D01*
X102185713Y-123479286D01*
X102114285Y-123336429D01*
X102042856Y-123265000D01*
X101899999Y-123193571D01*
X99971428Y-124693571D02*
X100828571Y-124693571D01*
X100399999Y-124693571D02*
X100399999Y-123193571D01*
X100542856Y-123407857D01*
X100685714Y-123550714D01*
X100828571Y-123622143D01*
X98685714Y-123193571D02*
X98971428Y-123193571D01*
X99114285Y-123265000D01*
X99185714Y-123336429D01*
X99328571Y-123550714D01*
X99400000Y-123836429D01*
X99400000Y-124407857D01*
X99328571Y-124550714D01*
X99257143Y-124622143D01*
X99114285Y-124693571D01*
X98828571Y-124693571D01*
X98685714Y-124622143D01*
X98614285Y-124550714D01*
X98542857Y-124407857D01*
X98542857Y-124050714D01*
X98614285Y-123907857D01*
X98685714Y-123836429D01*
X98828571Y-123765000D01*
X99114285Y-123765000D01*
X99257143Y-123836429D01*
X99328571Y-123907857D01*
X99400000Y-124050714D01*
X96971429Y-123193571D02*
X96471429Y-124693571D01*
X95971429Y-123193571D01*
X94685715Y-124693571D02*
X95542858Y-124693571D01*
X95114286Y-124693571D02*
X95114286Y-123193571D01*
X95257143Y-123407857D01*
X95400001Y-123550714D01*
X95542858Y-123622143D01*
X94042858Y-124550714D02*
X93971430Y-124622143D01*
X94042858Y-124693571D01*
X94114287Y-124622143D01*
X94042858Y-124550714D01*
X94042858Y-124693571D01*
X93042858Y-123193571D02*
X92900001Y-123193571D01*
X92757144Y-123265000D01*
X92685715Y-123336429D01*
X92614286Y-123479286D01*
X92542858Y-123765000D01*
X92542858Y-124122143D01*
X92614286Y-124407857D01*
X92685715Y-124550714D01*
X92757144Y-124622143D01*
X92900001Y-124693571D01*
X93042858Y-124693571D01*
X93185715Y-124622143D01*
X93257144Y-124550714D01*
X93328572Y-124407857D01*
X93400001Y-124122143D01*
X93400001Y-123765000D01*
X93328572Y-123479286D01*
X93257144Y-123336429D01*
X93185715Y-123265000D01*
X93042858Y-123193571D01*
D10*
X57180000Y-133540000D02*
X142270000Y-133540000D01*
X57180000Y-109410000D02*
X44480000Y-109410000D01*
X57180000Y-109410000D02*
X57180000Y-133540000D01*
M02*
