G04 #@! TF.FileFunction,Soldermask,Top*
%FSLAX46Y46*%
G04 Gerber Fmt 4.6, Leading zero omitted, Abs format (unit mm)*
G04 Created by KiCad (PCBNEW 4.0.3+e1-6302~38~ubuntu15.10.1-stable) date Thu Nov 17 07:24:37 2016*
%MOMM*%
%LPD*%
G01*
G04 APERTURE LIST*
%ADD10C,0.200000*%
%ADD11R,2.127200X2.432000*%
%ADD12O,2.127200X2.432000*%
%ADD13C,2.900000*%
%ADD14C,3.400000*%
%ADD15R,2.900000X2.400000*%
%ADD16C,4.049980*%
%ADD17R,1.901140X1.901140*%
%ADD18C,1.901140*%
%ADD19R,2.400000X2.900000*%
%ADD20R,1.200100X2.200860*%
%ADD21R,2.940000X2.940000*%
%ADD22C,2.940000*%
%ADD23R,2.432000X2.127200*%
%ADD24O,2.432000X2.127200*%
%ADD25R,2.100000X2.400000*%
%ADD26R,2.400000X2.100000*%
%ADD27R,1.200000X1.600000*%
%ADD28R,1.600000X1.200000*%
%ADD29O,1.873200X1.009600*%
%ADD30R,2.899360X1.901140*%
%ADD31R,7.400240X7.400240*%
%ADD32R,4.057600X2.432000*%
%ADD33R,1.416000X2.432000*%
%ADD34R,1.924000X2.432000*%
%ADD35R,0.908000X1.543000*%
%ADD36R,2.127200X2.127200*%
%ADD37O,2.127200X2.127200*%
%ADD38C,2.127200*%
%ADD39C,7.400000*%
%ADD40C,1.000000*%
G04 APERTURE END LIST*
D10*
D11*
X97820000Y-75120000D03*
D12*
X95280000Y-75120000D03*
X92740000Y-75120000D03*
X90200000Y-75120000D03*
D13*
X74930000Y-157480000D03*
X78930000Y-157480000D03*
X82930000Y-157480000D03*
X86930000Y-157480000D03*
X90930000Y-157480000D03*
X94930000Y-157480000D03*
X98930000Y-157480000D03*
X102930000Y-157480000D03*
X100930000Y-161480000D03*
X96930000Y-161480000D03*
X92930000Y-161480000D03*
X88930000Y-161480000D03*
X84930000Y-161480000D03*
X80930000Y-161480000D03*
X76930000Y-161480000D03*
X74930000Y-165480000D03*
X78930000Y-165480000D03*
X82930000Y-165480000D03*
X86930000Y-165480000D03*
X90930000Y-165480000D03*
X94930000Y-165480000D03*
X98930000Y-165480000D03*
X102930000Y-165480000D03*
D14*
X70430000Y-161980000D03*
X107430000Y-161980000D03*
D15*
X128300000Y-85820000D03*
X128300000Y-89820000D03*
D16*
X127441480Y-70675000D03*
X139310900Y-70675000D03*
D17*
X137825000Y-77025000D03*
D18*
X136555000Y-79565000D03*
X135285000Y-77025000D03*
X134015000Y-79565000D03*
X132745000Y-77025000D03*
X131475000Y-79565000D03*
X130205000Y-77025000D03*
X128935000Y-79565000D03*
D19*
X89470000Y-81470000D03*
X93470000Y-81470000D03*
D15*
X138460000Y-89820000D03*
X138460000Y-85820000D03*
D20*
X133060000Y-102193860D03*
X131160000Y-102193860D03*
X132110000Y-105196140D03*
D19*
X85660000Y-67500000D03*
X89660000Y-67500000D03*
X94550000Y-67500000D03*
X98550000Y-67500000D03*
D16*
X108391480Y-70675000D03*
X120260900Y-70675000D03*
D17*
X118775000Y-77025000D03*
D18*
X117505000Y-79565000D03*
X116235000Y-77025000D03*
X114965000Y-79565000D03*
X113695000Y-77025000D03*
X112425000Y-79565000D03*
X111155000Y-77025000D03*
X109885000Y-79565000D03*
D10*
G36*
X132430000Y-93490000D02*
X134330000Y-93490000D01*
X134830000Y-95390000D01*
X131930000Y-95390000D01*
X132430000Y-93490000D01*
X132430000Y-93490000D01*
G37*
G36*
X131930000Y-95490000D02*
X134830000Y-95490000D01*
X134330000Y-97390000D01*
X132430000Y-97390000D01*
X131930000Y-95490000D01*
X131930000Y-95490000D01*
G37*
G36*
X129250000Y-97390000D02*
X127350000Y-97390000D01*
X126850000Y-95490000D01*
X129750000Y-95490000D01*
X129250000Y-97390000D01*
X129250000Y-97390000D01*
G37*
G36*
X129750000Y-95390000D02*
X126850000Y-95390000D01*
X127350000Y-93490000D01*
X129250000Y-93490000D01*
X129750000Y-95390000D01*
X129750000Y-95390000D01*
G37*
G36*
X137510000Y-93490000D02*
X139410000Y-93490000D01*
X139910000Y-95390000D01*
X137010000Y-95390000D01*
X137510000Y-93490000D01*
X137510000Y-93490000D01*
G37*
G36*
X137010000Y-95490000D02*
X139910000Y-95490000D01*
X139410000Y-97390000D01*
X137510000Y-97390000D01*
X137010000Y-95490000D01*
X137010000Y-95490000D01*
G37*
D21*
X49560000Y-161480000D03*
D22*
X49560000Y-166560000D03*
D21*
X49560000Y-131000000D03*
D22*
X49560000Y-136080000D03*
D21*
X49560000Y-146240000D03*
D22*
X49560000Y-151320000D03*
D11*
X113060000Y-157670000D03*
D12*
X115600000Y-157670000D03*
X118140000Y-157670000D03*
X120680000Y-157670000D03*
D23*
X62260000Y-169100000D03*
D24*
X62260000Y-166560000D03*
X62260000Y-164020000D03*
X62260000Y-161480000D03*
D25*
X82580000Y-140430000D03*
X82580000Y-144430000D03*
X92740000Y-140430000D03*
X92740000Y-144430000D03*
X87660000Y-140430000D03*
X87660000Y-144430000D03*
X127030000Y-142335000D03*
X127030000Y-146335000D03*
X132110000Y-142335000D03*
X132110000Y-146335000D03*
X137190000Y-142335000D03*
X137190000Y-146335000D03*
X83850000Y-122650000D03*
X83850000Y-126650000D03*
X94010000Y-122650000D03*
X94010000Y-126650000D03*
X88930000Y-122650000D03*
X88930000Y-126650000D03*
X128300000Y-122650000D03*
X128300000Y-126650000D03*
X133380000Y-122650000D03*
X133380000Y-126650000D03*
X138460000Y-122650000D03*
X138460000Y-126650000D03*
X63530000Y-122650000D03*
X63530000Y-126650000D03*
X102265000Y-144240000D03*
X102265000Y-148240000D03*
X100360000Y-122650000D03*
X100360000Y-126650000D03*
D26*
X99185000Y-102425000D03*
X95185000Y-102425000D03*
D25*
X117505000Y-111410000D03*
X117505000Y-107410000D03*
D26*
X121220000Y-102425000D03*
X125220000Y-102425000D03*
D15*
X133380000Y-85820000D03*
X133380000Y-89820000D03*
D26*
X122680000Y-150050000D03*
X118680000Y-150050000D03*
D25*
X110520000Y-122650000D03*
X110520000Y-126650000D03*
X105440000Y-122650000D03*
X105440000Y-126650000D03*
X115600000Y-122650000D03*
X115600000Y-126650000D03*
X80040000Y-126650000D03*
X80040000Y-122650000D03*
X76230000Y-126650000D03*
X76230000Y-122650000D03*
X72420000Y-126650000D03*
X72420000Y-122650000D03*
X68610000Y-126650000D03*
X68610000Y-122650000D03*
D27*
X82580000Y-136690000D03*
X85120000Y-136690000D03*
X85120000Y-130390000D03*
X83850000Y-130390000D03*
X82580000Y-130390000D03*
X92740000Y-136690000D03*
X95280000Y-136690000D03*
X95280000Y-130390000D03*
X94010000Y-130390000D03*
X92740000Y-130390000D03*
X87660000Y-136690000D03*
X90200000Y-136690000D03*
X90200000Y-130390000D03*
X88930000Y-130390000D03*
X87660000Y-130390000D03*
X127030000Y-136690000D03*
X129570000Y-136690000D03*
X129570000Y-130390000D03*
X128300000Y-130390000D03*
X127030000Y-130390000D03*
X132110000Y-136690000D03*
X134650000Y-136690000D03*
X134650000Y-130390000D03*
X133380000Y-130390000D03*
X132110000Y-130390000D03*
X137190000Y-136690000D03*
X139730000Y-136690000D03*
X139730000Y-130390000D03*
X138460000Y-130390000D03*
X137190000Y-130390000D03*
X99090000Y-136690000D03*
X101630000Y-136690000D03*
X101630000Y-130390000D03*
X100360000Y-130390000D03*
X99090000Y-130390000D03*
D28*
X109225000Y-109410000D03*
X109225000Y-106870000D03*
X102925000Y-106870000D03*
X102925000Y-108140000D03*
X102925000Y-109410000D03*
X102925000Y-99885000D03*
X102925000Y-102425000D03*
X109225000Y-102425000D03*
X109225000Y-101155000D03*
X109225000Y-99885000D03*
D29*
X122331000Y-106870000D03*
X122331000Y-108140000D03*
X122331000Y-109410000D03*
X122331000Y-110680000D03*
X127919000Y-110680000D03*
X127919000Y-109410000D03*
X127919000Y-108140000D03*
X127919000Y-106870000D03*
D27*
X113060000Y-130390000D03*
X110520000Y-130390000D03*
X110520000Y-136690000D03*
X111790000Y-136690000D03*
X113060000Y-136690000D03*
X107980000Y-130390000D03*
X105440000Y-130390000D03*
X105440000Y-136690000D03*
X106710000Y-136690000D03*
X107980000Y-136690000D03*
X120680000Y-136690000D03*
X123220000Y-136690000D03*
X123220000Y-130390000D03*
X121950000Y-130390000D03*
X120680000Y-130390000D03*
X118140000Y-130390000D03*
X115600000Y-130390000D03*
X115600000Y-136690000D03*
X116870000Y-136690000D03*
X118140000Y-136690000D03*
D30*
X57540680Y-142694160D03*
X57540680Y-147245840D03*
D31*
X64439320Y-144970000D03*
D32*
X100360000Y-92392000D03*
D33*
X100360000Y-85788000D03*
X98074000Y-85788000D03*
X102646000Y-85788000D03*
D32*
X90200000Y-92392000D03*
D33*
X90200000Y-85788000D03*
X87914000Y-85788000D03*
X92486000Y-85788000D03*
D34*
X63530000Y-129730000D03*
X60990000Y-129730000D03*
X60990000Y-137350000D03*
X63530000Y-137350000D03*
D35*
X115600000Y-146748000D03*
X114330000Y-146748000D03*
X113060000Y-146748000D03*
X111790000Y-146748000D03*
X110520000Y-146748000D03*
X109250000Y-146748000D03*
X107980000Y-146748000D03*
X107980000Y-153098000D03*
X109250000Y-153098000D03*
X111790000Y-153098000D03*
X113060000Y-153098000D03*
X114330000Y-153098000D03*
X115600000Y-153098000D03*
X110520000Y-153098000D03*
X78135000Y-136715000D03*
X75595000Y-136715000D03*
X74325000Y-136715000D03*
X73055000Y-136715000D03*
X71785000Y-136715000D03*
X70515000Y-136715000D03*
X69245000Y-136715000D03*
X69245000Y-130365000D03*
X70515000Y-130365000D03*
X71785000Y-130365000D03*
X73055000Y-130365000D03*
X74325000Y-130365000D03*
X75595000Y-130365000D03*
X76865000Y-130365000D03*
X78135000Y-130365000D03*
X76865000Y-136715000D03*
D21*
X49560000Y-115760000D03*
D22*
X49560000Y-120840000D03*
D26*
X95185000Y-108140000D03*
X99185000Y-108140000D03*
D25*
X121950000Y-122650000D03*
X121950000Y-126650000D03*
D36*
X135920000Y-158940000D03*
D37*
X135920000Y-161480000D03*
X133380000Y-158940000D03*
X133380000Y-161480000D03*
X130840000Y-158940000D03*
X130840000Y-161480000D03*
D23*
X74960000Y-64960000D03*
D24*
X74960000Y-67500000D03*
X74960000Y-70040000D03*
X74960000Y-72580000D03*
X74960000Y-75120000D03*
X74960000Y-77660000D03*
X74960000Y-80200000D03*
X74960000Y-82740000D03*
X74960000Y-85280000D03*
X74960000Y-87820000D03*
X74960000Y-90360000D03*
X74960000Y-92900000D03*
D38*
X74852237Y-97872237D02*
X75067763Y-98087763D01*
X59612237Y-98087763D02*
X59827763Y-97872237D01*
D24*
X59720000Y-92900000D03*
X59720000Y-90360000D03*
X59720000Y-87820000D03*
X59720000Y-85280000D03*
X59720000Y-82740000D03*
X59720000Y-80200000D03*
X59720000Y-77660000D03*
X59720000Y-75120000D03*
X59720000Y-72580000D03*
X59720000Y-70040000D03*
X59720000Y-67500000D03*
X59720000Y-64960000D03*
X74960000Y-95440000D03*
X59720000Y-95440000D03*
D23*
X49560000Y-70040000D03*
D24*
X49560000Y-72580000D03*
X49560000Y-75120000D03*
X49560000Y-77660000D03*
D39*
X68930000Y-86480000D03*
D40*
X71555000Y-86480000D03*
X70786155Y-88336155D03*
X68930000Y-89105000D03*
X67073845Y-88336155D03*
X66305000Y-86480000D03*
X67073845Y-84623845D03*
X68930000Y-83855000D03*
X70786155Y-84623845D03*
D39*
X118930000Y-86480000D03*
D40*
X121555000Y-86480000D03*
X120786155Y-88336155D03*
X118930000Y-89105000D03*
X117073845Y-88336155D03*
X116305000Y-86480000D03*
X117073845Y-84623845D03*
X118930000Y-83855000D03*
X120786155Y-84623845D03*
M02*
