M48
;DRILL file {KiCad 4.0.3+e1-6302~38~ubuntu15.10.1-stable} date Thu Nov 17 07:24:40 2016
;FORMAT={-:-/ absolute / metric / decimal}
FMAT,2
METRIC,TZ
T1C0.300
T2C0.500
T3C0.899
T4C1.016
T5C1.524
T6C1.750
T7C3.500
%
G90
G05
M71
T1
X52.735Y-165.925
X54.005Y-164.655
X56.545Y-136.08
X56.545Y-137.35
X56.545Y-138.62
X59.085Y-128.46
X60.99Y-156.4
X62.26Y-156.4
X63.53Y-139.89
X63.53Y-156.4
X64.8Y-106.87
X64.8Y-108.775
X64.8Y-139.89
X66.07Y-139.89
X66.705Y-114.49
X68.61Y-128.46
X69.245Y-139.255
X71.785Y-128.46
X71.785Y-139.255
X74.325Y-128.46
X74.325Y-139.255
X74.325Y-146.24
X76.865Y-128.46
X76.865Y-139.255
X78.135Y-92.265
X78.135Y-106.87
X79.405Y-93.535
X80.675Y-97.345
X81.945Y-108.775
X82.58Y-146.875
X84.485Y-75.12
X85.12Y-128.46
X87.66Y-146.875
X88.295Y-169.1
X89.565Y-110.68
X90.2Y-105.6
X90.2Y-128.46
X91.47Y-114.49
X92.74Y-146.875
X93.375Y-110.68
X95.28Y-128.46
X97.185Y-142.43
X98.455Y-150.05
X99.725Y-104.965
X99.725Y-144.97
X100.995Y-99.885
X101.63Y-128.46
X102.9Y-118.3
X103.535Y-110.68
X104.17Y-141.16
X104.805Y-143.7
X105.44Y-120.84
X109.25Y-142.43
X110.52Y-141.16
X110.52Y-148.78
X111.155Y-99.885
X111.155Y-109.41
X112.425Y-102.425
X112.425Y-169.1
X114.33Y-142.43
X115.6Y-141.16
X115.6Y-143.7
X117.505Y-166.56
X118.14Y-142.43
X123.22Y-128.46
X124.49Y-108.14
X127.03Y-148.78
X128.3Y-119.57
X129.57Y-128.46
X132.11Y-107.505
X132.11Y-148.78
X133.38Y-119.57
X134.65Y-128.46
X135.285Y-107.505
X136.555Y-155.13
X137.19Y-148.78
X138.46Y-119.57
X139.095Y-155.13
X140.365Y-128.46
T2
X66.305Y-86.48
X67.074Y-84.624
X67.074Y-88.336
X68.93Y-83.855
X68.93Y-89.105
X70.786Y-84.624
X70.786Y-88.336
X71.555Y-86.48
X116.305Y-86.48
X117.074Y-84.624
X117.074Y-88.336
X118.93Y-83.855
X118.93Y-89.105
X120.786Y-84.624
X120.786Y-88.336
X121.555Y-86.48
T3
X109.885Y-79.565
X111.155Y-77.025
X112.425Y-79.565
X113.695Y-77.025
X114.965Y-79.565
X116.235Y-77.025
X117.505Y-79.565
X118.775Y-77.025
X128.935Y-79.565
X130.205Y-77.025
X131.475Y-79.565
X132.745Y-77.025
X134.015Y-79.565
X135.285Y-77.025
X136.555Y-79.565
X137.825Y-77.025
T4
X49.56Y-70.04
X49.56Y-72.58
X49.56Y-75.12
X49.56Y-77.66
X59.72Y-64.96
X59.72Y-67.5
X59.72Y-70.04
X59.72Y-72.58
X59.72Y-75.12
X59.72Y-77.66
X59.72Y-80.2
X59.72Y-82.74
X59.72Y-85.28
X59.72Y-87.82
X59.72Y-90.36
X59.72Y-92.9
X59.72Y-95.44
X59.72Y-97.98
X62.26Y-161.48
X62.26Y-164.02
X62.26Y-166.56
X62.26Y-169.1
X74.96Y-64.96
X74.96Y-67.5
X74.96Y-70.04
X74.96Y-72.58
X74.96Y-75.12
X74.96Y-77.66
X74.96Y-80.2
X74.96Y-82.74
X74.96Y-85.28
X74.96Y-87.82
X74.96Y-90.36
X74.96Y-92.9
X74.96Y-95.44
X74.96Y-97.98
X90.2Y-75.12
X92.74Y-75.12
X95.28Y-75.12
X97.82Y-75.12
X113.06Y-157.67
X115.6Y-157.67
X118.14Y-157.67
X120.68Y-157.67
X130.84Y-158.94
X130.84Y-161.48
X133.38Y-158.94
X133.38Y-161.48
X135.92Y-158.94
X135.92Y-161.48
T5
X49.56Y-115.76
X49.56Y-120.84
X49.56Y-131.
X49.56Y-136.08
X49.56Y-146.24
X49.56Y-151.32
X49.56Y-161.48
X49.56Y-166.56
T6
X74.93Y-157.48
X74.93Y-165.48
X76.93Y-161.48
X78.93Y-157.48
X78.93Y-165.48
X80.93Y-161.48
X82.93Y-157.48
X82.93Y-165.48
X84.93Y-161.48
X86.93Y-157.48
X86.93Y-165.48
X88.93Y-161.48
X90.93Y-157.48
X90.93Y-165.48
X92.93Y-161.48
X94.93Y-157.48
X94.93Y-165.48
X96.93Y-161.48
X98.93Y-157.48
X98.93Y-165.48
X100.93Y-161.48
X102.93Y-157.48
X102.93Y-165.48
T7
X68.93Y-86.48
X118.93Y-86.48
T0
M30
